<?xml version="1.0" encoding="UTF-8" standalone="no"?>
<!-- Created with Inkscape (http://www.inkscape.org/) -->

<svg
   xmlns:dc="http://purl.org/dc/elements/1.1/"
   xmlns:cc="http://creativecommons.org/ns#"
   xmlns:rdf="http://www.w3.org/1999/02/22-rdf-syntax-ns#"
   xmlns:svg="http://www.w3.org/2000/svg"
   xmlns="http://www.w3.org/2000/svg"
   xmlns:sodipodi="http://sodipodi.sourceforge.net/DTD/sodipodi-0.dtd"
   xmlns:inkscape="http://www.inkscape.org/namespaces/inkscape"
   id="svg3007"
   version="1.1"
   inkscape:version="0.48.4 r9939"
   width="394"
   height="394"
   sodipodi:docname="chinana2.svg"
   inkscape:export-filename="C:\Users\Wildcat\Desktop\mixer.png"
   inkscape:export-xdpi="29.238579"
   inkscape:export-ydpi="29.238579">
  <metadata
     id="metadata3013">
    <rdf:RDF>
      <cc:Work
         rdf:about="">
        <dc:format>image/svg+xml</dc:format>
        <dc:type
           rdf:resource="http://purl.org/dc/dcmitype/StillImage" />
        <dc:title></dc:title>
      </cc:Work>
    </rdf:RDF>
  </metadata>
  <defs
     id="defs3011" />
  <sodipodi:namedview
     pagecolor="#ffffff"
     bordercolor="#666666"
     borderopacity="1"
     objecttolerance="10"
     gridtolerance="10"
     guidetolerance="10"
     inkscape:pageopacity="0"
     inkscape:pageshadow="2"
     inkscape:window-width="1920"
     inkscape:window-height="1018"
     id="namedview3009"
     showgrid="false"
     inkscape:snap-global="false"
     inkscape:zoom="1.4142136"
     inkscape:cx="329.83931"
     inkscape:cy="232.56974"
     inkscape:window-x="-4"
     inkscape:window-y="-4"
     inkscape:window-maximized="1"
     inkscape:current-layer="svg3007">
    <inkscape:grid
       type="xygrid"
       id="grid3801" />
  </sodipodi:namedview>
  <rect
     style="fill:#00204f;fill-opacity:1;fill-rule:nonzero;stroke:none"
     id="rect3803"
     width="394"
     height="394"
     x="0"
     y="0"
     inkscape:export-xdpi="3.6548223"
     inkscape:export-ydpi="3.6548223" />
  <path
     style="fill:#1fbaed;fill-opacity:1;stroke:none"
     d="m 263.44543,294.47666 39.61781,-130.95035 c 6.68951,-22.33113 28.71454,-36.77648 52.70578,-28.88405 20.00283,7.10872 33.38886,28.02976 25.23551,52.74893 l -54.7028,181.45366 c -1.11429,3.59562 -3.87671,7.10978 -10.06945,7.15515 l -187.78456,0 c -36.542861,1.02207 -44.130301,-20.70647 -45.20077,-41.22792 1.966553,-35.33498 25.71623,-41.53866 48.81802,-40.33803 z"
     id="path4484"
     inkscape:connector-curvature="0"
     sodipodi:nodetypes="cccccccccc" />
  <path
     style="fill:#ffffff;fill-opacity:1;stroke:none"
     d="M 130.39401,98.77241 90.776201,229.72275 c -6.68951,22.33113 -28.71454,36.77648 -52.70578,28.88405 -20.00283,-7.10872 -33.3888604,-28.02976 -25.23551,-52.74893 l 54.7028,-181.45365 c 1.11429,-3.59562 3.87671,-7.10978 10.06945,-7.15515 l 187.784559,0 c 36.54286,-1.02207 44.1303,20.70647 45.20077,41.22792 -1.96655,35.33498 -25.71623,41.53866 -48.81802,40.33803 z"
     id="path4484-7"
     inkscape:connector-curvature="0"
     sodipodi:nodetypes="cccccccccc" />
</svg>
